<mxfile host="app.diagrams.net" modified="2022-01-18T13:17:25.855Z" agent="5.0 (Windows NT 10.0; Win64; x64) AppleWebKit/537.36 (KHTML, like Gecko) Chrome/97.0.4692.71 Safari/537.36 Edg/97.0.1072.62" etag="r4FrE1G7lwQCM8WnDMIN" version="16.2.7" type="github">
  <diagram id="JW-HZWeVedS_-bmpHygI" name="Page-1">
    <mxGraphModel dx="1422" dy="1930" grid="1" gridSize="10" guides="1" tooltips="1" connect="1" arrows="1" fold="1" page="1" pageScale="1" pageWidth="827" pageHeight="1169" math="0" shadow="0">
      <root>
        <mxCell id="0" />
        <mxCell id="1" parent="0" />
        <mxCell id="n6mSQEgEvL3i4QGaagsP-1" value="LA32-GCC" style="rounded=1;whiteSpace=wrap;html=1;" vertex="1" parent="1">
          <mxGeometry x="130" y="-800" width="120" height="60" as="geometry" />
        </mxCell>
        <mxCell id="n6mSQEgEvL3i4QGaagsP-2" value="LA32-Binutils" style="rounded=1;whiteSpace=wrap;html=1;" vertex="1" parent="1">
          <mxGeometry x="260" y="-800" width="120" height="60" as="geometry" />
        </mxCell>
        <mxCell id="n6mSQEgEvL3i4QGaagsP-3" value="LA32-newlib" style="rounded=1;whiteSpace=wrap;html=1;" vertex="1" parent="1">
          <mxGeometry x="130" y="-870" width="120" height="60" as="geometry" />
        </mxCell>
        <mxCell id="n6mSQEgEvL3i4QGaagsP-4" value="LA32-qemu" style="rounded=1;whiteSpace=wrap;html=1;" vertex="1" parent="1">
          <mxGeometry x="260" y="-870" width="120" height="60" as="geometry" />
        </mxCell>
        <mxCell id="n6mSQEgEvL3i4QGaagsP-6" value="LoongArch64-Linux4.19.73" style="rounded=0;whiteSpace=wrap;html=1;" vertex="1" parent="1">
          <mxGeometry x="130" y="-980" width="250" height="90" as="geometry" />
        </mxCell>
        <mxCell id="n6mSQEgEvL3i4QGaagsP-8" value="Toolchain" style="swimlane;horizontal=0;fillColor=#dae8fc;strokeColor=#6c8ebf;" vertex="1" parent="1">
          <mxGeometry x="80" y="-880" width="320" height="160" as="geometry" />
        </mxCell>
        <mxCell id="n6mSQEgEvL3i4QGaagsP-9" value="Object" style="swimlane;horizontal=0;fillColor=#ffe6cc;strokeColor=#d79b00;fontColor=#FF3333;" vertex="1" parent="n6mSQEgEvL3i4QGaagsP-8">
          <mxGeometry y="-130" width="320" height="130" as="geometry" />
        </mxCell>
      </root>
    </mxGraphModel>
  </diagram>
</mxfile>
